<?xml version="1.0" encoding="UTF-8" standalone="no"?>
<svg xmlns:osb="http://www.openswatchbook.org/uri/2009/osb" xmlns:dc="http://purl.org/dc/elements/1.1/" xmlns:cc="http://creativecommons.org/ns#" xmlns:rdf="http://www.w3.org/1999/02/22-rdf-syntax-ns#" xmlns:svg="http://www.w3.org/2000/svg" xmlns="http://www.w3.org/2000/svg" xmlns:sodipodi="http://sodipodi.sourceforge.net/DTD/sodipodi-0.dtd" xmlns:inkscape="http://www.inkscape.org/namespaces/inkscape" width="735.7449417535254" height="1000" viewBox="0 0 735.7449417535254 1000" fill="none" version="1.1" id="svg19" sodipodi:docname="line-path-dali.svg" inkscape:version="1.0.2 (e86c870879, 2021-01-15, custom)">
    <metadata id="metadata25">
        <rdf:RDF>
            <cc:Work rdf:about="">
                <dc:format>image/svg+xml</dc:format>
                <dc:type rdf:resource="http://purl.org/dc/dcmitype/StillImage" />
            </cc:Work>
        </rdf:RDF>
    </metadata>
    <defs id="defs23">
        <linearGradient id="linearGradient2807" osb:paint="solid">
            <stop style="stop-color:#ff0071;stop-opacity:1" offset="0" id="stop2805" />
        </linearGradient>
    </defs>
    <sodipodi:namedview pagecolor="#ffffff" bordercolor="#666666" borderopacity="1" objecttolerance="10" gridtolerance="10" guidetolerance="10" inkscape:pageopacity="0" inkscape:pageshadow="2" inkscape:window-width="640" inkscape:window-height="480" id="namedview21" showgrid="false" inkscape:zoom="0.755" inkscape:cx="228.4" inkscape:cy="384.5" inkscape:current-layer="layer1" />
    <g inkscape:groupmode="layer" id="layer1" inkscape:label="Layer 1">
        <path style="fill:#fbd8fd;fill-rule:evenodd;stroke:#000000" d="m 300,250 c 0,0 -20,-10 -40,-10 50,20 40,10 20,0 40,30 30,20 20,10 30,40 20,20 10,10 10,50 20,30 10,10 20,50 0,40 10,20 10,10 10,30 -10,20 40,-10 20,-10 20,10 30,-40 20,-20 0,-20 30,-10 30,-20 20,0 10,-30 10,-10 10,-20 10,0 0,-10 0,10 10,0 10,-10 0,-20 30,20 10,20 10,10 20,-10 20,10 0,10 30,-20 20,-20 20,0 20,-20 10,-20 0,-20 10,-20 20,0 10,0 0,-40 0,-20 10,0 -30,-40 -10,-40 -10,-20 -30,-40 -20,-20 0,-20 -30,-10 -30,-20 -20,0 -30,-10 -10,-10 -10,-20 -30,10 -20,10 0,10 -30,10 -30,0 -20,0 -10,20 -10,10 -10,0 10,40 0,20 0,10 30,40 10,30 0,10 50,20 30,30 10,20 20,-10 40,0 20,10 20,-20 0,-20 20,-10 10,0 0,-10 -20,-10 40,-10 30,10 20,0 20,-20 20,-10 10,10 -10,-30 10,-30 10,-20 -30,-20 -20,-10 0,-10 -50,-20 -30,-10 -20,0 -10,-20 -30,-20 -10,-10 10,0 0,-10 -20,-10 10,20 30,10 20,0 -30,20 -10,20 10,10 -50,30 -40,10 -20,10 -10,10 -30,20 -20,0 10,20 10,10 -10,20 10,20 20,0 20,-10 0,20 -10,30 0,10 -10,-10 0,10 -10,20 10,-40 0,-30 10,-10 10,-20 0,-30 -10,-20 30,20 20,0 10,-10 20,50 20,30 10,10 10,50 10,40 10,20 20,20 0,30 0,20 0,-10 20,0 0,10 10,-10 0,-20 20,-10 -30,-20 -10,0 -20,-10 0,-30 -10,-10 10,10 -10,-30 -10,-40 -20,-20 -20,-10 10,-10 10,-20 -50,-10 -30,10 0,10 -70,-30 -50,-20 -30,0 -40,-50 -40,-30 -20,-20 -30,-50 -20,-30 -20,-10 10,-30 -10,-40 0,-20 20,-20 10,-10 -10,-20 40,0 30,0 20,10 20,10 20,-10 10,-10 10,30 10,20 10,0 -10,40 0,30 0,20 10,10 -10,20 0,10 -10,0 10,0 -10,10 -10,-10 0,-10 20,-10 -40,-20 -30,0 -20,0 -20,-30 -20,-20 -10,0 -20,-20 -10,-30 -10,-20 10,-10 -10,0 0,-10 10,20 10,0 -10,10 30,10 20,10 20,-10 -10,30 10,20 0,20 0,30 -10,10 10,0 -10,20 -10,30 -20,10 20,-20 10,10 10,20 30,-30 10,-40 0,-10 40,0 30,-20 10,-30 30,10 30,30 20,10 60,50 10,0 10,20 80,80 50,30 0,-20 80,120 80,100 50,50 50,70 30,70 30,50 0,30 20,20 0,20 -10,20 0,10 20,0 -30,30 -30,20 -20,10 0,30 -10,20 -10,10 20,10 10,20 0,10 20,-20 20,0 10,10 20,-10 10,-30 10,-10 20,-10 10,0 0,-20 30,0 20,10 10,20 0,-20 20,-20 10,-10 0,-30 -10,-10 10,-10 -10,0 -10,-20 -20,0 30,-10 10,0 10,-20 40,20 20,10 0,20 30,-10 40,0 20,-10 10,20 10,0 20,10 10,0 -10,10 -10,-10 40,10 20,10 0,20 50,-20 40,-10 20,-10 40,-30 30,-10 20,0 10,-40 20,-30 10,-10 -10,-10 0,-30 10,-20 -30,0 -20,10 -10,-10 0,20 -20,10 -10,20 10,20 10,0 -10,-10 10,20 20,30 20,10 0,-10 -10,10 0,20 10,-20 0,-30 -10,-10 20,-30 20,-10 10,-20 20,10 10,-10 10,10 30,-10 10,0 0,-20 20,30 30,10 10,20 0,30 10,10 20,-10 -20,20 -20,40 -10,20 0,10 -10,0 -10,20 -10,-10 10,-10 0,-20 0,10 -10,10 10,10 0,10 -10,0 -20,0 0,20 20,10 10,0 -30,10 -10,20 10,10 -20,0 -40,0 -20,10 10,0 0,-10 -20,-10 20,30 30,10 20,0 -10,30 0,30 10,10 -40,30 -20,20 -10,20 -30,20 -30,10 -10,0 -20,0 -20,20 -20,10 10,10 0,-10 0,10 20,-10 10,0 0,-20 10,10 20,10 10,20 10,-30 0,-10 10,-10 0,-40 0,-20 -10,0 20,-60 10,-40 10,-20 30,-50 10,-40 0,-20 20,-50 30,-30 10,-20 10,-20 10,-30 20,-10 -40,-10 -10,-10 -10,-20 -20,-10 -30,10 0,10 -30,-10 -20,-20 -30,0 -10,10 0,-10 10,-20 -20,50 -20,30 -10,10 -10,30 -10,40 -10,20 -10,10 0,10 0,20 -30,0 -10,-10 0,-10 -40,10 -30,10 -10,0 -10,0 -30,10 -20,10 0,-20 10,-10 -10,0 0,-20 10,-20 20,-10 -40,-20 -20,-10 -10,-10 -50,0 -30,-10 -10,0 -40,10 -40,0 -20,-10 0,20 -20,20 -20,10 10,0 20,10 0,10 10,-20 10,-10 20,0 0,-30 -10,-20 -10,-10 30,-10 10,-20 0,-10 50,-10 30,0 10,-10 30,0 40,0 20,10 30,0 10,-10 20,-10 10,20 10,10 -10,0 10,20 20,20 20,10 -10,0 -10,10 0,10 -20,-10 -10,-10 -10,0 -20,-20 -10,-10 0,-10 -30,0 -20,-10 -10,0 -20,20 -20,0 -10,-10 -10,20 -10,30 -10,10 10,40 0,10 0,20 10,40 10,20 0,-10 -10,60 10,50 10,30 -10,40 -20,30 0,20 -10,40 -10,20 -20,10 0,30 10,30 10,10 -20,30 -10,20 0,20 -20,0 -20,10 -10,0 10,-10 -10,0 -10,10 0,-30 20,-20 0,-10 -20,-20 0,-20 20,-10 -30,-30 -40,-10 -20,-10 -10,-40 -10,-20 -20,0 20,-40 10,-40 10,-20 20,0 10,-20 0,-20 10,30 20,20 10,0 -10,40 0,30 10,20 -10,30 -20,20 -10,10 -10,30 0,20 -10,10 20,30 0,20 10,10 10,0 10,20 -10,10 40,0 20,-10 20,10 10,0 20,-10 0,-20 20,0 10,20 20,10 -10,-40 0,-10 -10,10 -10,-60 0,-50 10,-20 -10,-50 -20,-40 -10,-30 10,-10 0,-20 -10,-10 40,-10 20,0 10,-10 40,20 30,0 10,10 40,-10 30,10 20,-10 10,0 20,0 10,20 -10,0 0,-20 10,-20 -10,40 -20,20 -10,0 0,60 0,40 -10,20 20,40 10,40 10,20 0,10 10,20 0,20 0,-30 0,-10 10,0 -20,-30 -10,-30 -10,-10 -20,-30 -10,-20 0,-20 -40,-20 -20,-10 -10,0 -50,-10 -30,-20 -10,-10 -60,10 -40,0 -20,-10 -30,40 -40,20 -20,10 -20,30 -10,30 -20,10 10,0 0,20 10,20 -10,-40 0,-20 -10,0 0,-50 0,-40 10,-20 -20,-10 -10,-30 -10,-20 10,70 -10,10 0,-10 30,80 10,80 -10,20 20,70 40,60 20,60 20,20 0,10 20,0 20,20 0,20 -20,10 20,20 40,10 20,10 10,20 0,10 20,0 -10,10 -10,20 -20,10 0,10 10,0 10,10 -30,10 -10,0 0,-10 -40,20 -30,20 -10,10 -40,0 -30,10 -20,10 -10,10 -20,-10 -10,0 -10,0 0,10 -10,-10 0,-10 0,10 10,20 10,10 -10,-30 -10,-10 20,10 20,20 0,-20 20,50 20,30 20,40 10,0 0,10 0,-10 20,10 10,10 0,20 30,-20 20,-10 10,-10 20,-20 20,-10 10,0 20,-40 10,-20 10,-10 0,-40 10,-30 0,-10 20,-30 0,-30 10,-20 30,-40 10,-10 -10,-10 80,-80 40,-30 20,0 20,-150 60,-80 20,-30 50,-170 0,-120 40,-50 20,-110 10,-120 -40,-70 60,-50 60,-40 50,-50 10,-20 10,0 10,10 -20,-30 0,-30 0,-10 0,-10 -20,-20 0,-20 10,-10 0,10 -20,0 40,-30 30,-10 20,10 30,-50 20,-40 10,-20 20,-10 20,-30 10,-20 20,10 10,10 10,-10 -10,30 10,20 0,20 -20,20 -10,10 10,0 -50,10 -30,20 -20,10 -30,-20 -30,0 -10,10 0,-20 -20,-30 -20,-10 20,-30 20,-10 0,-20 40,-20 20,-10 20,10 10,-30 20,-30 0,-20 0,-20 10,-10 20,-10 -20,-30 -20,-10 -10,0 -20,-10 -10,-30 -10,-10 -10,-10 -10,0 0,-20 -20,30 -10,10 -10,20 0,10 -10,10 0,-10 10,40 0,20 -10,20 30,30 20,20 10,0 40,20 20,30 10,20 30,-10 30,0 10,10 10,-40 20,-20 20,-10 -30,-20 -10,-30 0,-10 -40,10 -30,-10 -10,-20 -50,30 -30,30 -20,10 -10,30 -30,20 -10,20 0,20 0,10 -20,0 10,40 20,20 20,10 20,20 -10,30 0,10 30,-20 20,10 -10,20 20,-100 40,-40 30,-10 -10,-110 -10,-90 10,-30 -20,-100 -20,-80 -20,-60 0,-50 0,-40 0,-20 0,-50 0,-30 0,-20 -10,-10 0,-30 0,-10 0,-10 -10,0 0,-20 -10,10 0,10 -10,20 10,-30 0,-10 10,-10 0,-40 0,-20 -10,0 -10,-30 10,-40 10,-20 -10,-20 -20,-10 0,-20 -30,-10 -10,0 -20,10 -20,-30 -10,-20 10,-10 -10,-10 -30,-20 -20,-10 20,0 10,0 -10,-10 20,-10 30,10 20,10 -10,-10 0,-20 10,0 -30,10 -20,-10 -10,-20 -10,40 -20,30 -10,10 -10,10 0,30 -10,20 20,0 0,-10 10,10 10,-30 10,-10 -10,-20 0,-20 20,-10 20,10 -30,-30 -20,-30 0,-20 -50,0 -30,-10 -20,-10 -20,10 -30,10 -10,0 -10,0 -10,10 -20,10 20,10 10,-10 10,0 30,20 10,10 0,-10 50,40 30,30 10,20 40,30 40,20 20,10 10,20 20,20 20,10 0,20 -10,10 0,10 -10,10 0,10 -10,0 10,40 0,10 10,10 0,40 0,30 -10,0 20,60 10,40 10,30 0,-90 10,30 0,10 -20,-100 0,-100 10,20 -50,-110 -30,-120 -10,-120 -60,0 -40,10 -20,0 -50,10 -40,0 -20,10 -30,-10 -30,0 -20,-10 -230,160 -10,0 -10,10 -220,160 -220,150 0,-10 -240,180 -220,170 -220,160 -30,10 -20,20 0,10 -30,-20 -30,0 -20,10 0,-10 -10,-30 -10,-10 0,20 10,0 0,-20 20,30 0,40 10,20 0,-10 10,10 -10,20 20,-20 10,-30 20,-10 -20,-20 0,-10 -10,-20 -30,-10 -10,0 10,10 -60,-10 -40,-20 -20,-10 -40,-10 -40,0 -20,-10 -10,20 -20,0 -20,10 30,10 10,10 0,-10 30,0 30,20 10,20 10,-10 20,-20 20,0 0,10 -10,-10 0,-20 10,30 0,30 -10,10 10,0 20,20 10,20 -10,0 0,-20 10,0 -20,-10 -20,0 -10,-20 -20,0 -10,10 -10,20 -10,0 -10,-20 0,-10 -30,10 -10,10 -10,-10 -40,20 -20,20 0,20 -50,10 -40,0 -20,0 -40,30 -30,10 -20,0 -20,10 -20,30 -10,10 0,-20 -10,0 -10,20 0,-40 10,-40 0,-20 -20,-10 0,-20 10,-20 -40,20 -30,10 -10,0 -20,0 -30,20 -20,10 10,-10 0,-10 -10,10 20,0 20,-20 10,-20 20,10 10,20 10,0 20,10 10,10 0,20 0,-10 20,-10 10,-10 -20,20 -10,0 10,0 -30,10 -30,20 -20,0 -30,0 -10,10 -10,20 -10,-30 -20,-20 0,-10 -30,-10 -10,-20 -20,-10 10,0 -10,0 10,-10 -10,0 0,10 -20,10 40,-20 10,-10 20,0 30,-20 20,-20 -10,-10 50,-10 40,-10 30,-10 30,10 20,0 10,0 30,20 20,10 10,0 40,10 20,20 10,10 30,10 30,0 10,10 0,-10 20,0 20,-10 -30,-10 -20,0 0,10 -10,-20 -30,-20 -20,-10 10,0 10,-10 -10,-10 10,0 20,10 20,0 -30,-10 -10,0 0,10 -50,40 -30,-20 -10,-10 -30,70 -40,50 -20,-10 -20,90 -10,80 -20,60 20,20 0,30 10,20 20,10 10,0 -10,10 50,0 30,0 20,-10 50,0 30,10 10,10 40,-20 40,-10 20,0 0,-10 20,-20 20,-10 -40,0 -20,0 0,-10 -50,0 -40,10 -20,10 -30,-20 -30,-10 -20,0 -30,-10 -10,-20 -10,-10 -30,0 -20,0 0,-10 -30,20 -30,10 -20,10 -20,30 -10,10 -10,0 0,40 -10,30 0,10 20,40 0,30 -10,20 20,10 30,20 10,10 10,10 10,0 20,10 10,0 -10,0 -10,-10 20,30 20,10 0,10 10,20 20,20 20,0 0,30 -10,20 0,20 0,-10 0,10 -10,0 30,-20 10,-10 10,10 40,-30 20,-30 0,-20 50,0 40,-10 20,-10 10,0 30,10 20,0 -10,20 -10,0 10,10 -10,0 -20,10 -20,-10 0,-10 10,10 0,20 -10,-40 0,-30 10,-10 -30,-30 -20,-30 -10,-20 -30,0 -20,-10 -10,-10 -30,0 -20,10 -10,0 -10,0 -20,0 -10,10 20,-20 0,-10 -10,-10 50,-20 30,-10 10,0 30,-30 40,-20 20,-10 0,-10 10,-20 20,-10 0,10 -20,0 -10,-10 20,20 10,20 -10,10 40,30 30,10 20,10 30,30 20,20 10,0 20,40 20,30 10,20 0,10 10,20 10,10 -30,-10 -10,0 0,10 -20,-20 -30,-20 -10,-10 0,-30 -10,-10 -20,-10 40,-10 20,-20 10,0 50,0 30,-10 10,-20 40,0 40,20 20,10 10,0 20,-10 20,10 0,-10 -10,-10 0,-20 10,20 0,10 -10,10 30,30 20,10 10,0 30,40 20,30 10,10 40,30 20,30 10,20 10,0 30,10 10,10 -10,0 0,-10 20,0 -30,-20 -30,0 -20,-10 -20,-10 -10,-10 -10,10 0,10 -10,-20 0,-20 20,30 0,30 -10,0 40,40 30,30 10,30 20,10 30,10 20,0 20,20 0,10 10,10 30,0 10,10 -10,0 20,-10 40,0 20,10 20,-20 0,-20 20,-10 10,0 0,-10 -20,-10 0,10 30,10 20,0 -40,20 -20,10 10,10 -60,10 -50,10 -30,0 -10,-30 -30,10 -20,10 0,-40 10,-40 -10,0 -60,-30 10,-40 20,-40 -90,20 -80,10 -10,0 -90,40 -80,20 -70,10 -40,20 -20,30 -10,10 -10,0 -30,10 -10,20 0,-30 0,-20 -20,-10 20,-40 20,-20 20,-10 -20,-20 0,-30 0,-10 -10,10 -20,-10 0,-20 -30,40 -10,30 -20,10 -20,10 -10,30 10,20 -30,0 -30,-10 -20,10 0,10 -10,-10 -10,-20 30,40 10,30 0,10 30,20 30,30 10,20 30,10 20,0 20,10 20,0 10,0 0,-10 40,20 20,10 10,10 40,10 30,10 10,0 10,0 30,10 20,10 -50,-20 -10,-10 10,0 -80,-30 -60,-20 -20,-10 -30,-40 -60,-20 -40,-10 30,-40 10,-30 -20,-10 50,-20 50,-30 30,-20 0,-40 20,0 20,-10 -20,-60 -20,-30 0,10 -40,-70 -20,-70 -20,-40 -40,-10 -20,-30 0,-30 -30,40 -40,20 -20,0 -30,40 -10,40 -20,20 -30,0 -10,20 10,20 -70,-20 -40,-20 -20,0 -60,-30 -50,-20 -20,-20 -40,0 -40,-10 -30,0 0,-20 -10,0 -10,-10 20,-30 10,-10 0,10 10,-40 20,-40 10,-20 -10,-10 0,-20 10,-20 -40,10 -20,10 -10,0 -20,0 -30,10 -10,10 10,0 -10,-10 -20,0 10,10 30,0 10,-10 0,10 0,20 20,10 -10,40 -20,0 -20,10 0,60 10,30 0,-10 0,90 0,70 10,40 -10,70 -10,50 -10,30 0,50 0,40 0,20 0,40 0,30 0,20 0,30 0,20 0,10 0,40 0,20 0,10 0,20 0,30 0,10 10,50 0,10 0,20 10,50 10,30 0,-10 10,50 10,60 10,40 10,40 0,10 0,20 10,30 10,20 0,-10 20,60 10,40 10,30 0,20 10,30 0,10 10,30 0,10 10,20 10,30 0,10 -10,-10 30,60 20,40 10,20 30,60 20,40 10,20 30,50 20,40 10,20 20,20 20,30 10,20 10,20 10,0 10,10 20,20 0,10 0,-10 30,50 20,30 0,20 30,40 30,30 20,10 10,50 10,30 10,20 -10,30 0,30 0,10 -20,10 -10,20 0,20 -30,-30 -20,-10 -10,0 0,-40 -20,-30 -10,-10 10,-10 10,-30 -10,-20 0,10 20,10 20,-10 0,10 -20,20 0,20 -10,-10 0,-10 -20,0 30,-20 10,-10 20,-10 -10,-10 10,-10 -10,0 -10,-20 0,-10 20,-10 -20,-10 -30,-10 -20,0 0,-20 0,-10 -10,-10 0,10 10,-10 10,0 0,30 -10,10 0,-10 20,50 0,40 -10,20 40,40 30,30 10,20 40,20 30,20 20,10 40,10 20,10 10,10 40,10 30,0 10,0 40,0 30,10 20,0 10,0 20,0 10,10 -10,0 0,-10 10,-10 0,10 -20,10 -10,0 30,20 10,10 -10,10 30,-10 40,10 20,0 0,10 10,-10 20,10 -30,0 -20,0 -10,-20 -20,30 -20,20 -10,20 -10,20 -10,10 -10,0 0,40 0,20 0,10 10,30 0,30 0,10 20,20 10,20 0,20 20,-10 20,0 10,0 30,-10 10,-10 10,0 30,10 20,-10 0,-10 10,10 30,20 20,0 -10,20 -10,10 10,20 -10,0 -20,0 -20,-10 0,-10 10,10 0,10 -10,0 0,-20 10,0 -30,-20 -20,0 -10,-20 -10,-10 -20,0 -10,20 0,-50 0,-30 -10,-20 30,-40 10,-30 10,-10 30,-20 20,-30 0,-20 50,10 30,0 20,-10 50,10 30,20 10,10 60,-10 40,0 20,10 20,-30 40,-20 20,-10 20,-20 0,-20 20,-10 -20,-20 0,-10 -20,-10 -10,-10 0,-10 20,0 -50,0 -30,-10 -20,-10 -20,30 -30,10 -10,0 0,20 -10,30 -20,10 10,0 20,10 10,20 -10,-30 0,-20 10,-10 -10,0 -20,-20 -10,-10 -20,0 0,10 -10,-10 -10,0 -10,10 10,20 0,-30 -20,-20 -20,-10 30,0 20,-20 0,-10 50,0 30,10 20,-10 20,-10 30,10 10,20 -10,-40 10,-30 20,-10 -20,-50 -30,-30 -10,-20 10,-40 -10,-30 -20,-10 40,-10 30,-30 10,-20 10,20 30,10 20,-10 0,20 -10,30 10,20 0,-10 -10,0 -20,10 20,0 20,-20 10,-10 0,20 10,10 10,-10 0,30 -10,30 0,20 -10,0 0,10 -10,10 0,-30 0,-10 10,0 10,-20 -10,-30 -10,-10 30,-20 20,-10 0,-20 20,0 30,0 20,10 10,0 0,-10 10,-10 10,0 0,10 -10,0 40,10 20,0 10,10 50,-10 30,0 10,-10 60,-10 40,0 20,10 30,0 40,-20 20,-10 10,20 10,10 20,-10 -20,40 -10,30 -10,20 -20,30 -10,20 0,10 -40,30 -20,20 -10,10 -40,40 -30,20 -10,10 -50,20 -30,30 -20,10 -50,10 -30,10 -10,20 -40,-30 -40,-10 -20,-10 0,-10 -20,-20 -20,0 10,-20 20,-10 0,-20 -10,0 10,0 20,10 -40,-10 -30,-10 -10,-10 -40,-10 -30,0 -20,0 -10,-30 -20,-10 -10,0 10,-40 0,-30 -10,-10 0,-40 20,-30 10,-20 -10,0 -10,-20 10,-10 -40,10 -20,10 -20,-10 -30,20 -20,20 0,20 -20,-20 -30,0 -20,0 0,-10 0,-20 -10,0 10,10 10,-10 10,-20 10,30 0,30 0,10 10,40 10,20 0,20 0,20 10,20 10,0 -10,10 -10,20 0,20 0,-10 -10,-10 -10,0 10,-30 10,-10 0,-10 -10,-30 10,-20 10,0 -20,-40 -20,-30 0,-20 -30,-10 -20,-20 -20,-10 -30,-10 -10,0 0,-10 -10,-10 -30,0 -10,10 10,-20 0,-20 -20,-10 10,-10 30,-10 20,-10 -20,0 -10,0 10,0 -40,0 -30,0 -20,0 -20,-20 -20,0 -10,0 0,-10 -10,-20 -10,0 30,-10 10,-10 0,-20 30,30 30,10 10,10 30,0 20,20 20,0 -10,0 10,0 0,20 -30,-20 -10,-20 10,-20 -30,-10 -40,0 -20,0 -20,-20 -10,-10 -20,0 20,20 0,-20 10,-10 10,40 10,30 -10,-10 60,50 20,50 20,40 50,-10 40,10 0,10 70,-10 50,-20 40,0 30,-20 30,-10 10,-20 10,0 20,0 20,10 -30,-10 -10,-10 0,-10 -20,20 -30,0 -10,0 0,10 -10,20 -20,0 30,30 20,10 10,20 10,20 20,10 10,-10 0,40 0,30 10,20 -20,40 -10,20 -10,10 -20,50 -10,30 0,10 0,50 -20,40 -10,20 30,40 10,30 -10,20 30,40 40,20 20,10 -10,40 10,30 20,10 -20,20 -30,30 -10,20 0,20 -10,0 -20,10 20,0 20,10 10,-10 0,-10 10,10 10,20 0,-30 -10,-30 0,-10 20,-10 0,-20 -10,-20 40,10 30,10 10,0 40,0 30,10 20,10 30,10 20,-10 10,0 20,20 20,10 10,-10 20,30 10,30 10,20 -10,0 10,10 0,10 10,-10 -10,-10 10,0 10,0 0,-10 -20,-10 30,0 30,10 20,0 30,0 10,0 10,10 30,-10 20,-10 0,-10 50,-10 30,0 20,0 40,-20 30,-10 10,0 40,-20 30,-20 20,-10 30,-10 20,-10 10,-10 40,-10 20,0 10,0 50,-20 30,-10 10,0 60,-30 40,-20 20,-10 50,-30 40,-20 20,-10 10,-10 30,-20 20,-10 30,-20 -10,0 10,-10 30,-20 20,-10 -20,10 70,-40 50,-30 40,-20 20,-20 30,-20 10,-10 30,-20 10,-10 20,-10 20,-20 10,-10 -10,0 50,-30 30,-20 20,-10 70,-40 30,-20 10,-10 -130,80 60,-30 20,-10 -200,110 -150,90 40,-20 -250,130 -240,130 -190,110 -80,30 -60,20 -50,20 -70,20 -30,10 -10,0 -80,20 -60,20 -20,10 -70,20 -60,10 -40,10 -50,10 -30,10 -20,0 -50,20 -30,10 -10,10 -30,20 -40,10 -20,0 -20,0 -10,20 -20,10 0,-30 0,-10 10,10 0,-50 -10,-40 -10,-20 0,-40 10,-30 0,-20 0,-40 0,-20 10,-10 10,-20 -10,-30 -10,-10 0,-10 20,-10 0,-20 10,20 0,10 20,10 10,0 -10,10 -20,0 40,-10 30,0 10,10 30,-30 30,-20 20,-10 20,-40 10,-20 10,-10 20,-10 10,-30 0,-10 10,10 20,0 10,-20 20,40 0,30 10,20 20,20 10,20 -10,10 40,-10 30,10 20,10 30,-40 20,-20 10,0 0,-30 20,-40 10,-20 -20,-30 -10,-10 10,-20 -40,-20 -30,-10 -20,10 -10,-40 -20,-30 -10,-20 10,-30 0,-20 -10,-10 30,-10 20,-20 10,-10 0,10 20,0 10,-10 0,10 -10,20 10,10 0,-10 -10,0 -20,10 30,10 20,-20 10,-10 10,40 20,20 10,-10 10,50 0,50 10,30 10,-10 0,20 -10,20 30,-40 20,-30 10,0 50,-70 20,-40 10,-30 50,-60 40,-40 10,-10 -60,0 40,-50 30,-30 -90,50 -90,30 10,-20 -130,100 -100,70 -100,50 -10,70 -30,50 0,20 0,50 -10,50 -30,30 30,30 30,20 20,20 10,30 10,10 10,0 0,40 0,30 0,10 -10,20 0,30 0,20 -20,0 -10,0 0,10 -20,0 -20,-10 -10,-10 -30,0 -10,10 -10,0 -40,10 -20,0 0,10 -60,-10 -40,0 -20,-10 -30,0 -40,0 -20,10 -10,10 -10,-10 -20,-10 30,10 10,20 10,0 20,20 20,10 0,20 30,-10 20,0 20,-10 10,20 10,0 0,10 0,10 10,10 10,-10 -30,20 -10,20 0,20 -20,10 -30,0 -10,0 0,30 -10,10 -20,0 30,40 20,30 10,10 10,10 20,30 10,20 10,-20 0,-10 10,10 10,-30 0,-30 -10,-20 20,0 20,-10 10,-10 0,20 10,10 10,0 -20,30 -10,20 0,10 -30,0 -20,20 -10,10 0,-10 -20,-10 -10,10 20,-10 10,-20 -10,-20 20,30 30,10 20,0 -10,40 0,30 10,10 -40,40 -20,30 -10,20 -50,20 -30,20 -10,10 -30,-10 -40,10 -20,10 0,-20 -10,-20 -20,0 40,-20 20,-20 10,-20 20,-20 30,0 10,0 -10,-20 10,-20 20,0 -50,-20 -30,-20 -10,-20 -50,-10 -40,0 -20,0 -10,-10 -30,-10 -20,0 -10,-20 10,-10 -10,-10 -10,-10 0,-10 20,0 -30,10 -30,-10 -20,-10 -20,10 -10,20 -10,0 -10,20 -10,10 0,20 0,-10 -10,0 -10,-10 -10,0 10,0 0,10 -10,-30 -10,-10 10,-10 -30,-10 -20,-20 -20,0 0,-10 -10,-10 0,-20 -20,10 0,10 -10,10 -20,-10 -10,0 10,0 -40,-10 -30,-10 -20,0 -20,0 -20,-10 -10,-10 0,10 -10,10 -10,0 20,0 10,10 0,10 30,-10 20,-10 10,0 40,0 20,-10 10,-10 50,30 30,10 10,0 40,40 40,30 20,10 30,10 20,30 20,20 20,0 10,-10 0,10 10,10 20,-10 10,-20 10,20 0,30 10,10 20,10 0,10 -10,20 20,-10 30,-10 10,-10 20,20 10,0 20,0 -10,20 0,20 -10,0 20,20 0,20 10,20 10,10 10,0 -10,0 10,20 20,10 20,0 -20,20 -10,20 0,10 -30,30 -20,10 -10,10 -10,10 -20,20 -10,0 -20,30 0,10 -10,20 -30,30 -10,10 10,-10 -60,40 -40,40 -20,20 -60,30 -40,20 -20,20 -30,-10 -40,10 -20,0 0,10 -10,-10 -20,10 10,0 20,0 10,-20 20,20 0,20 10,20 0,-20 10,0 -10,0 -10,-10 10,-20 20,0 -30,-30 -30,-10 -10,-20 -30,-20 -20,-10 -20,10 0,-10 -10,-30 0,-20 -10,10 0,10 -10,-10 -10,20 0,20 10,20 -20,10 -20,0 -10,0 -30,20 -10,10 -10,0 0,20 -20,20 0,10 10,10 0,10 -20,10 50,-10 30,0 20,0 10,-10 30,-10 10,0 -10,-30 0,-10 20,-10 -40,-20 -30,-20 -20,0 -20,-10 -20,-20 -10,-20 -10,20 -10,10 -10,0 -20,10 0,20 0,10 -40,-10 -20,0 0,10 -50,-10 -40,-20 -20,-10 -20,0 -30,0 -20,-10 10,20 0,10 -10,10 20,0 20,10 10,0 20,10 10,0 10,10 10,10 10,0 0,-10 20,0 10,20 10,10 -10,-20 10,-10 0,10 -30,-30 -10,-30 10,-20 -50,-20 -40,-10 -20,-10 -50,0 -30,-10 -20,0 -40,-10 -30,0 -10,-10 -20,0 -30,0 -20,10 0,-20 0,-10 -10,-10 20,10 10,-10 10,0 20,30 10,10 0,-10 0,30 20,40 10,20 0,-10 -10,10 10,20 -30,-40 -10,-30 -20,-10 -20,-30 -10,-30 10,-20 -50,-20 -30,-10 -20,-10 -40,-10 -30,-10 -10,0 -40,-30 -30,-10 -20,-10 -40,-20 -20,-20 -10,0 -10,-30 -30,-20 -10,-20 -20,-10 0,-10 -20,0 0,-30 0,-10 20,-10 -30,-20 -20,-20 -20,0 -20,-40 -10,-20 0,-20 -20,-40 -20,-20 -10,0 0,-30 -10,-40 -10,-20 20,-10 10,-10 0,-20 0,10 20,10 10,10 -20,0 -10,0 10,0 -10,-10 -30,0 -20,0 10,10 10,-10 -10,0 0,20 20,10 20,-10 -20,40 -20,30 0,20 -10,10 -20,20 -20,10 30,0 10,0 0,10 50,0 30,-10 10,-10 30,0 40,10 20,0 0,20 10,0 20,10 -10,20 -20,10 -10,-10 -20,40 0,30 -10,20 -10,0 -10,20 10,10 -30,-10 -20,-10 -20,10 0,-40 -10,-20 0,-20 20,-10 0,-20 -10,0 30,0 30,-10 10,-20 40,30 20,20 20,10 20,40 20,20 0,10 10,50 20,30 20,10 0,60 -10,40 0,20 -10,60 0,40 -10,20 10,60 0,40 10,20 0,50 0,40 -10,20 -10,20 10,30 10,20 -10,10 -20,0 0,10 -30,0 -10,0 -20,-10 -20,20 -10,10 10,10 -40,-10 -30,10 -20,0 0,-10 -20,-10 -10,10 20,-10 10,-20 -10,-20 10,10 30,10 20,0 -10,-10 -10,10 10,10 -40,-30 -20,-20 -20,0 -20,-40 -20,-30 0,-20 -10,0 -20,-20 -20,-10 30,10 10,10 0,-10 30,0 30,20 10,20 40,-20 20,-20 20,0 30,-10 20,-20 0,-20 40,0 30,10 20,0 30,10 20,0 10,10 10,10 20,0 10,-10 -10,20 0,20 10,10 -30,20 -20,10 -10,10 -30,30 -20,10 -10,0 -30,30 -20,30 -10,10 -40,10 -20,20 -10,20 -40,-20 -30,-10 -10,0 -30,-10 -30,-20 -20,-10 0,10 -10,0 -10,-10 0,30 10,20 0,10 0,30 0,20 10,10 0,10 -10,20 -10,10 20,0 10,0 0,10 0,-20 20,-10 10,-10 -10,-40 -10,-10 10,0 0,-30 -20,-40 -20,-10 30,-40 20,-20 0,-30 10,-20 30,-10 20,10 -20,-50 -10,-30 10,-20 -30,-50 -30,-30 -20,-10 0,-60 -10,-40 -10,-20 20,-20 10,-40 0,-20 30,0 20,0 10,-20 40,10 20,20 10,20 20,-10 30,-10 10,0 10,0 10,-10 20,-10 -30,0 -10,10 -10,0 -10,0 -20,0 0,10 10,0 -10,-10 -20,-10 20,30 30,10 10,0 -10,30 10,30 20,10 -40,30 -30,20 -10,20 -20,10 -30,10 -20,0 10,-10 0,10 -10,10 20,-10 20,-20 10,0 20,-20 10,-10 10,-20 20,20 10,0 0,10 40,10 20,10 10,-10 40,10 30,20 10,20 40,0 30,-10 20,0 20,10 20,0 10,-10 0,20 10,20 10,10 0,30 -10,10 0,10 20,10 0,20 -10,0 20,0 30,10 10,20 30,-10 10,-20 20,-10 30,0 10,0 -10,-10 30,20 40,10 20,10 0,-10 10,10 20,0 -30,10 -20,-10 -10,10 -30,0 -20,0 -10,-20 -20,10 -20,20 -10,20 -10,-30 -10,-10 -10,0 -10,-40 0,-30 0,-10 -10,-50 -10,-30 0,-20 -30,-20 -10,-30 -10,-10 -40,0 -20,-10 0,-20 -30,40 -40,20 -20,10 -10,10 -10,30 -20,10 30,-10 10,0 10,20 20,-10 20,-30 0,-20 30,30 20,10 20,-10 0,50 10,40 0,20 -10,40 0,30 10,20 -10,20 -20,20 -10,10 -10,-10 0,10 -10,10 -20,-10 0,-20 10,0 -40,-30 -30,-10 -10,-20 -40,-20 -30,-10 -20,10 -30,-50 -20,-30 -10,-20 -30,-30 -20,-30 -10,-10 -20,-30 -20,-20 -10,-20 -10,-20 -10,-10 -10,0 -10,0 0,-20 0,-10 -10,-10 -10,10 0,-10 -10,-20 -10,0 -10,20 0,-50 0,-40 0,-20 0,-10 0,-30 0,-20 20,0 0,10 0,-10 40,20 20,10 0,20 60,0 40,0 20,-10 60,10 40,10 20,10 40,-10 40,0 20,0 20,10 20,-10 20,0 20,20 0,10 0,-10 10,10 20,30 0,20 10,0 10,-10 20,10 -20,0 -10,-10 -10,-20 -20,10 -10,20 0,10 -20,-20 -20,0 -10,10 -30,-40 -10,-30 -10,-10 0,-10 -20,-30 0,-20 -10,40 0,10 -20,-10 20,60 10,50 20,20 -30,50 0,40 -10,30 -40,30 -20,20 10,10 -50,30 -50,20 -30,10 0,20 -20,20 -20,10 20,20 20,10 0,10 -10,0 20,10 20,0 -40,-20 -30,0 0,10 -30,-40 -40,-30 -30,-10 0,-80 0,-30 -10,-20 10,-80 10,-60 10,-10 -10,-90 0,-70 0,-50 -10,-60 -10,-40 0,-20 -10,-50 -10,-40 -10,-20 10,-30 0,-30 0,-20 20,-30 10,-10 0,-10 0,-10 20,-20 10,0 0,-20 -10,-10 10,-20 -10,-20 -10,0 -20,10 0,-10 10,-30 10,-10 30,30 -10,0 0,-20 30,60 30,50 -10,20 40,50 40,40 40,30 -10,20 0,20 0,10 40,-10 -10,10 0,10 30,-50 40,-20 -10,0 130,-90 40,-50 50,-20 90,-70 80,-70 -10,-30 120,-40 100,-40 90,-40 20,0 30,0 10,0 20,-10 10,0 20,0 0,10 0,-10 -10,0 30,10 10,10 10,-10 30,10 20,20 0,20 10,-10 30,-10 20,0 0,-10 -10,-10 10,-10 0,-20 -10,0 -20,0 40,-20 20,-20 10,0 20,0 30,-20 10,-20 0,30 10,20 20,0 -30,40 -20,30 -10,20 -30,10 -20,20 -10,10 0,10 -20,0 -10,10 20,-10 10,0 -10,-10 40,-20 30,0 20,10 10,-40 20,-30 10,-10 -10,-50 0,-30 10,-20 -20,-20 -20,-30 -10,-10 -30,0 -10,-10 -10,-20 -40,20 -20,20 0,10 -50,-10 -40,10 -20,10 -40,-20 -30,-20 -20,0 -30,-40 -20,-20 -10,-20 -30,-20 -20,-20 -10,0 -20,-30 -20,-20 -10,-20 -20,0 -10,-10 -10,0 10,10 -10,0 0,-10 20,20 10,20 -10,10 40,30 30,10 20,10 80,20 20,20 10,0 80,20 70,20 10,20 80,10 70,0 60,0 10,30 20,10 10,0 0,50 0,30 10,10 0,60 -10,40 -10,20 10,20 10,40 0,20 20,20 10,0 10,20 20,-10 10,0 0,-20 0,10 20,10 10,20 -30,-10 -10,-10 10,-10 -40,-10 -40,0 -20,0 0,-20 -20,-10 -20,0 10,0 20,-20 0,-10 50,-20 10,10 20,-10 40,-10 30,-10 -10,20 40,-50 50,-30 40,-30 40,-80 0,-20 10,0 20,-90 30,-80 -10,-20 30,-80 30,-70 40,-60 0,-20 -10,-20 -10,-10 30,-10 10,-10 0,-10 50,140 30,0 10,0 30,170 40,140 20,0 10,180 10,170 20,140 0,40 -10,40 -10,30 -40,30 10,10 0,10 -40,30 -40,20 10,0 -60,20 -50,30 -50,20 -30,20 -10,0 0,10 -30,30 -30,10 -10,-10 -80,70 -20,40 -20,20 -100,70 -60,50 0,20 -110,50 -100,50 -60,30 -40,40 -50,20 -40,20 -20,30 0,20 -10,0 -20,20 -10,30 10,20 -50,-10 -30,0 -20,10 -20,-40 -30,-20 -10,-10 -30,-40 -10,-30 -20,-10 0,-10 -10,-30 10,-20 -10,-10 -10,10 -20,-10 30,10 10,0 10,20 -20,-30 20,-10 0,-20 -10,-10 -20,-10 20,10 -30,40 -30,-20 -40,-20 80,60 10,60 10,0 60,-80 70,60 0,60 50,-150 60,-140 70,0 -60,-290 -20,-150 -10,-140 -60,-160 -50,-150 -10,-10 -60,-160 -50,-150 -40,-140 -20,-10 -20,-20 -10,-10 0,10 -10,0 -10,-10 60,-10 10,20 0,10 50,-40 60,-20 10,10 30,-70 40,-50 50,-30 -100,-20 -20,-40 -10,-20 -100,0 -90,0 -10,-20 -100,10 -90,20 -80,20 -30,-30 -20,-10 -10,0 -20,-20 -20,-30 -10,-10 -30,-10 -10,-10 -10,-20 -10,0 -20,10 0,10 -30,0 -10,-10 -20,0 -10,-10 -10,0 10,-10 -10,-20 -20,0 -20,10 20,-50 10,-30 0,-10 10,-40 20,-40 10,-20 0,-40 0,-20 10,-20 -30,-30 -10,-20 -10,0 0,-40 -20,-30 0,-20 0,-10 0,-20 -20,-10 40,-10 20,0 20,-10 10,0 20,0 0,10 0,-20 10,-10 20,-10 0,-10 -20,-10 -10,0 30,-10 10,-10 -10,-10 40,20 40,0 20,0 20,40 20,20 20,0 -10,60 0,40 0,20 -30,50 -10,40 0,20 -30,20 -30,30 -10,20 -30,-20 -20,0 -20,10 -20,-30 -10,-30 0,-10 -30,-30 -20,-20 -10,-20 -10,-20 -20,-10 -10,0 0,-30 0,-20 -10,-10 10,-40 10,-20 10,-10 0,-20 0,-30 0,-10 -10,-20 0,-10 0,-20 -10,-10 -10,0 0,10 -10,-40 -10,-20 -10,-10 10,-10 0,-30 0,-10 10,-20 10,0 0,-20 10,-10 10,0 10,20 0,-10 0,-30 0,-20 20,10 0,10 0,-10 30,10 20,20 0,20 30,-30 30,-10 20,0 0,-10 10,-30 10,-10 -20,0 -10,0 0,-20 0,30 -20,20 -10,20 -10,20 10,10 -10,0 20,30 0,20 20,10 -20,20 0,20 -20,10 10,0 0,10 20,10 -10,0 -10,-10 -20,0 30,10 10,0 10,-10 20,0 20,20 0,10 -10,-20 20,-10 20,10 -20,-50 -30,-30 0,-20 -40,-40 -20,-30 -30,-10 -10,-40 -10,-30 10,-20 -30,-30 -20,-20 -20,-10 0,-20 -10,-20 0,-10 10,0 0,-10 -10,-10 0,10 20,10 10,0 10,20 -10,10 10,10 -20,10 0,10 -20,0 20,20 0,10 20,10 -20,30 0,10 -20,0 0,60 0,30 20,10 -20,60 -20,50 -20,20 10,90 0,40 0,30 40,60 10,60 0,10 40,130 40,50 10,50 30,90 30,80 30,0 70,-140 0,90 0,80 70,-240 70,-220 0,10 -40,-270 70,-250 70,-230 -110,-130 -110,-40 0,-20 -100,-110 -110,-110 -110,-20 20,-110 10,-90 0,-90 10,-30 20,-20 10,0 0,-40 0,-30 10,-20 -20,-30 -10,-20 -10,-10 10,-30 -10,-20 0,-10 0,-40 10,-20 -10,-10 0,-50 10,-30 20,-10 0,-30 -20,-40 -10,-20 20,0 10,-10 -10,-20 10,10 30,20 20,10 -10,-10 -10,0 10,10 -20,-40 -20,-20 -20,-10 10,-40 0,-30 0,-10 10,-50 10,-30 0,-20 10,-20 10,-30 10,-10 -10,-20 0,-10 0,-20 -20,20 -10,0 0,10 -10,30 -20,10 -10,-10 -10,60 0,40 -10,20 0,50 0,40 10,20 -10,40 -10,30 -10,20 20,20 0,20 0,10 10,20 20,10 0,10 20,20 10,10 20,0 0,30 0,20 -10,10 0,10 10,20 10,10 -20,-10 -10,0 0,10 -20,0 -20,-20 -10,-10 0,-20 -10,10 -10,-10 30,0 10,-10 0,20 30,0 30,-20 10,-30 40,20 20,30 20,10 40,0 20,10 0,20 50,-40 40,-20 20,-10 20,-50 30,-30 20,-10 10,-30 0,-40 10,-20 10,-20 0,-10 -10,-20 40,-10 20,0 10,10 30,-40 30,-20 10,-10 20,-40 20,-30 20,-10 -20,-20 0,-30 0,-20 -30,-20 -20,0 0,-10 -40,-10 -30,-10 -20,10 -10,0 -20,-20 -10,-20 10,10 0,20 -10,0 30,20 20,10 10,20 30,10 20,0 10,-10 30,0 20,20 10,10 30,-20 20,-10 10,10 10,-40 20,-30 10,-20 -20,-30 0,-20 10,-10 -50,-20 -30,-20 -10,-10 -60,-20 -40,-10 -20,-10 -60,-10 -40,-10 -20,0 -50,0 -40,-10 -20,-10 -30,0 -30,10 -20,0 -20,0 -10,0 -10,10 -30,-10 -10,-10 0,-10 -10,10 -30,0 -10,0 10,30 0,10 -20,0 50,30 30,30 20,10 50,30 30,20 10,20 30,20 40,10 20,0 0,40 10,20 20,10 -30,10 -20,30 -10,10 0,-10 -20,0 -10,20 10,-50 10,-30 -10,-20 0,-40 20,-30 20,-10 -40,-20 -20,-30 0,-20 -50,0 -40,0 -20,-10 -30,-10 -30,10 -20,10 -20,-10 -10,-20 -10,0 0,-10 -10,-10 0,-20 -10,30 0,10 -10,10 10,30 0,20 10,0 20,40 0,30 -10,20 30,10 30,20 10,10 10,20 20,0 20,10 0,10 -10,10 0,-10 -10,30 0,20 -10,20 -10,-10 0,10 10,0 -30,0 -20,-10 -10,10 -20,0 -20,-10 -10,-20 10,30 -10,20 -10,10 30,20 20,20 0,10 40,-10 30,10 20,10 30,-40 20,-20 10,0 10,-50 20,-40 10,-20 0,-40 0,-30 10,-20 -20,-20 -10,-20 -10,-10 10,-20 -10,-10 0,-10 10,0 10,-10 -10,0 40,0 20,0 20,-10 30,30 20,10 0,10 20,40 30,20 20,0 -20,30 0,40 10,20 -40,0 -30,10 -10,20 -20,0 -30,-20 -20,-10 -20,20 0,10 -10,-10 0,40 -10,30 10,20 0,40 -10,20 -20,10 30,30 20,30 10,10 50,20 20,20 10,20 60,-20 40,0 10,0 70,-10 50,-20 30,0 40,-40 40,-10 20,-20 -10,-40 20,-20 20,10 -30,-60 -30,-50 0,-30 -50,-40 -30,-30 -30,-20 -30,-40 -20,-20 0,-10 -20,-30 -30,-30 -20,-10 -20,-10 0,-20 -10,-20 -20,0 -10,10 10,0 -20,30 -30,0 -20,10 10,40 0,20 -10,-10 30,60 20,50 10,30 0,30 20,30 10,20 -30,20 -10,10 10,10 0,10 -40,10 -20,0 40,-60 20,10 -20,10 -40,-50 60,-70 40,0 -80,-30 -80,-50 20,-70 -50,170 -100,40 -100,20 110,120 50,150 0,20 250,180 110,100 50,130 210,60 200,50 60,-30 140,90 150,90 140,80 20,0 0,10 10,10" id="the-curve" />
    </g>
</svg>
